<mxfile host="app.diagrams.net" modified="2023-10-17T02:38:49.087Z" agent="Mozilla/5.0 (Windows NT 10.0; Win64; x64) AppleWebKit/537.36 (KHTML, like Gecko) Chrome/117.0.0.0 Safari/537.36" version="22.0.4" etag="gc58l8LbX1sKxAXZuCyX" type="github">
  <diagram name="Page-1" id="INZPJV4GsXgmf9qogLml">
    <mxGraphModel>
      <root>
        <mxCell id="0" />
        <mxCell id="1" parent="0" />
      </root>
    </mxGraphModel>
  </diagram>
</mxfile>
